<svg id="Warstwa_1" data-name="Warstwa 1" xmlns="http://www.w3.org/2000/svg" viewBox="0 0 1080 937"><defs><style>.cls-1{fill:#dc8428;opacity:0.9;}.cls-2{fill:#e6e6e6;opacity:0.6;}</style></defs><title>Obszar roboczy 1</title><path class="cls-1" d="M524.92,624.1,306.56,726.92c-9.92,4.67-21.75-1.25-23.3-11.66L188,77.63a15.54,15.54,0,0,0-9.57-12L23.68,1.32C11.79-3.62-1.1,6,1.16,18.15l168.18,904c2,11,15.26,16.34,25,10.16L289.49,872a23.65,23.65,0,0,1,2.62-1.42L524.92,764.15"/><path class="cls-1" d="M559.61,624.1,780.9,728.3c9,4.24,19.86-.22,22.77-9.36l92-288.78a15.71,15.71,0,0,1,9-9.66l152.5-63.42c12.56-5.23,25.87,5.77,22.16,18.31L916.9,924.94c-3,10.09-15.47,14.48-24.65,8.66l-93.56-59.24a87.47,87.47,0,0,0-10.21-5.54L559.61,764.15"/><path class="cls-2" d="M287.22,377l103.64,3c10.4.3,18.41-8.64,16.45-18.34l-16.23-80.18a15.62,15.62,0,0,0-9.48-11.24l-140.28-58a15.6,15.6,0,0,1-9.51-11.42l-18.27-96.39c-2.45-12.94,12.16-22.68,24.13-16.09L448.07,204a15.48,15.48,0,0,1,7.82,10.47l47,234.25c1.9,9.51-5.77,18.32-16,18.32H295.23c-8.12,0-15-5.7-16.1-13.35l-8.5-59.2C269.28,385,277.18,376.67,287.22,377Z"/></svg>