<svg xmlns="http://www.w3.org/2000/svg" viewBox="0 0 1080 937"><defs><style>.cls-1{fill:#474750;stroke:#fff;stroke-miterlimit:10;}.cls-2{fill:#dc8428;}.cls-3{fill:#e6e6e6;}</style></defs><title>Obszar roboczy 1</title><g id="Warstwa_2" data-name="Warstwa 2"><rect class="cls-1" x="4.97" y="-105.4" width="1070.07" height="1172.8" transform="translate(52.12 1014.79) rotate(-89.27)"/></g><g id="Warstwa_1" data-name="Warstwa 1"><path class="cls-2" d="M530,565.35,394.67,629.07c-6.15,2.89-13.48-.77-14.44-7.23L321.16,226.68a9.64,9.64,0,0,0-5.93-7.42l-95.88-39.87c-7.36-3.07-15.35,2.9-13.95,10.42L309.63,750.05c1.26,6.8,9.46,10.12,15.5,6.3l59-37.34a14.07,14.07,0,0,1,1.62-.88l144.28-66"/><path class="cls-2" d="M551.49,565.35l137.15,64.57c5.58,2.63,12.3-.13,14.11-5.8l57-179a9.73,9.73,0,0,1,5.6-6l94.51-39.31c7.78-3.23,16,3.58,13.73,11.35L772.92,751.79c-1.85,6.25-9.59,9-15.28,5.37l-58-36.72a53.65,53.65,0,0,0-6.33-3.43L551.49,652.14"/><path class="cls-3" d="M382.68,412.18,446.91,414c6.45.19,11.41-5.35,10.19-11.37L447,353a9.65,9.65,0,0,0-5.87-7l-86.94-35.95a9.68,9.68,0,0,1-5.89-7.07L337,243.25c-1.52-8,7.53-14.05,15-10L482.37,305a9.63,9.63,0,0,1,4.85,6.49l29.11,145.18c1.18,5.89-3.58,11.35-9.9,11.35H387.65a9.91,9.91,0,0,1-10-8.27L372.4,423C371.56,417.18,376.46,412,382.68,412.18Z"/></g></svg>